<svg width="20" height="20" viewBox="0 0 20 20" fill="none" xmlns="http://www.w3.org/2000/svg">
<path d="M18.7592 11.5514C18.5575 11.3932 18.28 11.3733 18.0577 11.501C17.0038 12.1068 15.8898 12.4141 14.7467 12.4141C11.0738 12.4141 8.08577 9.42589 8.08577 5.75293C8.08577 4.6048 8.39341 3.49231 9.00022 2.44647C9.12909 2.22444 9.10997 1.94632 8.95192 1.74391C8.79395 1.5415 8.52874 1.45539 8.28206 1.52666C6.50775 2.03813 4.91078 3.12329 3.78537 4.58216C2.61737 6.09637 2 7.90984 2 9.8266C2 14.6089 5.89055 18.4997 10.6727 18.4997C12.5895 18.4997 14.4034 17.8825 15.9183 16.7149C17.3782 15.5897 18.4639 13.9937 18.9754 12.2206C19.0465 11.9743 18.9609 11.7096 18.7592 11.5514ZM10.6727 17.2419C6.58405 17.2419 3.25772 13.9154 3.25772 9.8266C3.25772 7.06817 4.83616 4.55793 7.23513 3.29635C6.96447 4.09165 6.82805 4.91328 6.82805 5.75293C6.82805 10.1194 10.3804 13.6718 14.7467 13.6718C15.5851 13.6718 16.4082 13.5348 17.2073 13.2632C15.9459 15.6627 13.4335 17.2419 10.6727 17.2419Z" fill="white"/>
</svg>
