<svg width="20" height="20" viewBox="0 0 20 20" fill="none" xmlns="http://www.w3.org/2000/svg">
<g clip-path="url(#clip0_5447_25609)">
<path d="M9.99882 16.7622C9.64236 16.7622 9.35352 17.051 9.35352 17.4075V19.3557C9.35352 19.7122 9.64236 20.0011 9.99882 20.0011C10.3553 20.0011 10.6441 19.7122 10.6441 19.3557V17.4075C10.6441 17.051 10.3553 16.7622 9.99882 16.7622Z" fill="#8B8B8B"/>
<path d="M9.99882 3.23981C10.3553 3.23981 10.6441 2.95097 10.6441 2.5945V0.646529C10.6441 0.290061 10.3553 0.0012207 9.99882 0.0012207C9.64236 0.0012207 9.35352 0.290061 9.35352 0.646529V2.59459C9.35352 2.95097 9.64236 3.23981 9.99882 3.23981Z" fill="#8B8B8B"/>
<path d="M4.30692 14.7817L2.92889 16.1591C2.67679 16.4111 2.6767 16.8196 2.92863 17.0716C3.05468 17.1978 3.21988 17.2607 3.38508 17.2607C3.55019 17.2607 3.7153 17.1978 3.84127 17.0719L5.2193 15.6945C5.4714 15.4425 5.47149 15.034 5.21956 14.782C4.96746 14.5298 4.55885 14.5297 4.30692 14.7817Z" fill="#8B8B8B"/>
<path d="M15.2362 5.40844C15.4013 5.40844 15.5665 5.34555 15.6924 5.21958L17.0704 3.84223C17.3225 3.59022 17.3226 3.1817 17.0706 2.92968C16.8185 2.67741 16.4099 2.6775 16.158 2.92942L14.78 4.30677C14.5279 4.55879 14.5278 4.96731 14.7797 5.21941C14.9058 5.34546 15.071 5.40844 15.2362 5.40844Z" fill="#8B8B8B"/>
<path d="M3.23902 10.0003C3.23902 9.64382 2.95018 9.35498 2.59371 9.35498H0.645308C0.28884 9.35498 0 9.64382 0 10.0003C0 10.3568 0.28884 10.6456 0.645308 10.6456H2.59371C2.95009 10.6456 3.23902 10.3567 3.23902 10.0003Z" fill="#8B8B8B"/>
<path d="M19.3546 9.35498H17.4056C17.0491 9.35498 16.7603 9.64382 16.7603 10.0003C16.7603 10.3568 17.0491 10.6456 17.4056 10.6456H19.3546C19.711 10.6456 19.9999 10.3568 19.9999 10.0003C19.9999 9.64382 19.711 9.35498 19.3546 9.35498Z" fill="#8B8B8B"/>
<path d="M4.30649 5.21934C4.43254 5.34539 4.59766 5.40838 4.76286 5.40838C4.92797 5.40838 5.09317 5.34539 5.21913 5.21943C5.47123 4.96742 5.47123 4.55881 5.21922 4.30688L3.84187 2.92953C3.58977 2.67743 3.18116 2.67752 2.92932 2.92945C2.67722 3.18146 2.67722 3.59007 2.92923 3.842L4.30649 5.21934Z" fill="#8B8B8B"/>
<path d="M15.6934 14.7818C15.4413 14.5298 15.0327 14.5297 14.7809 14.7817C14.5288 15.0338 14.5288 15.4424 14.7808 15.6944L16.1581 17.0717C16.2841 17.1978 16.4492 17.2608 16.6144 17.2608C16.7795 17.2608 16.9447 17.1978 17.0707 17.0718C17.3228 16.8198 17.3228 16.4112 17.0708 16.1592L15.6934 14.7818Z" fill="#8B8B8B"/>
<path d="M9.9997 4.19067C6.79621 4.19067 4.18994 6.79694 4.18994 10.0004C4.18994 13.2039 6.79621 15.8102 9.9997 15.8102C13.2032 15.8102 15.8094 13.2039 15.8094 10.0004C15.8094 6.79694 13.2032 4.19067 9.9997 4.19067ZM9.9997 14.5197C7.50777 14.5197 5.48056 12.4924 5.48056 10.0005C5.48056 7.50859 7.50777 5.48129 9.9997 5.48129C12.4915 5.48129 14.5187 7.50859 14.5187 10.0004C14.5187 12.4923 12.4915 14.5197 9.9997 14.5197Z" fill="#8B8B8B"/>
</g>
<defs>
<clipPath id="clip0_5447_25609">
<rect width="20" height="20" fill="white"/>
</clipPath>
</defs>
</svg>
